<svg width="391" height="441" viewBox="0 0 391 441" fill="none" xmlns="http://www.w3.org/2000/svg">
<rect width="391" height="441" fill="white"/>
<path d="M199.682 20.2335L196.394 17.3625L193.105 20.2335L18.1053 173.02L16.3937 174.514V176.786V424V429H21.3937H371.394H376.394V424V176.786V174.514L374.682 173.02L199.682 20.2335Z" stroke="black" stroke-width="10"/>
<rect x="31.3937" y="184" width="40" height="230" fill="#AD5E5E"/>
<rect x="211.394" y="98" width="40" height="316" fill="#AD5E5E"/>
<rect x="321.394" y="294" width="40" height="120" fill="#AD5E5E"/>
<rect x="223.394" y="414" width="40" height="138" transform="rotate(-90 223.394 414)" fill="#AD5E5E"/>
<rect x="281.394" y="304" width="40" height="80" transform="rotate(-90 281.394 304)" fill="#AD5E5E"/>
<rect x="141.394" y="90" width="40" height="154" fill="#AD5E5E"/>
<rect x="161.193" y="209.012" width="40.4006" height="148.583" transform="rotate(60 161.193 209.012)" fill="#AD5E5E"/>
<path d="M181.394 54L181.394 104.5L52.0761 218.904L31.8966 183.952L181.394 54Z" fill="#AD5E5E"/>
<path d="M211.386 54L211.386 104.226L341.519 218.904L361.293 184.172L211.386 54Z" fill="#AD5E5E"/>
</svg>
